<mxfile host="app.diagrams.net" modified="2021-04-20T03:39:54.477Z" agent="5.0 (Windows NT 10.0; WOW64) AppleWebKit/537.36 (KHTML, like Gecko) Chrome/89.0.4389.114 Safari/537.36" etag="1T-P3n6Gp6hwBFIsNC2c" version="14.5.3" type="github" pages="7">
  <diagram id="H9qWl8LRJetYy7X6ohde" name="Page-1">
    <mxGraphModel dx="1422" dy="762" grid="1" gridSize="10" guides="1" tooltips="1" connect="1" arrows="1" fold="1" page="1" pageScale="1" pageWidth="827" pageHeight="1169" math="0" shadow="0">
      <root>
        <mxCell id="i_S6I2KGw48YoNG-3xre-0" />
        <mxCell id="i_S6I2KGw48YoNG-3xre-1" parent="i_S6I2KGw48YoNG-3xre-0" />
        <mxCell id="i_S6I2KGw48YoNG-3xre-2" value="" style="edgeStyle=orthogonalEdgeStyle;rounded=0;orthogonalLoop=1;jettySize=auto;html=1;shadow=1;" parent="i_S6I2KGw48YoNG-3xre-1" source="i_S6I2KGw48YoNG-3xre-4" target="i_S6I2KGw48YoNG-3xre-7" edge="1">
          <mxGeometry relative="1" as="geometry" />
        </mxCell>
        <mxCell id="i_S6I2KGw48YoNG-3xre-3" value="write" style="edgeLabel;html=1;align=center;verticalAlign=middle;resizable=0;points=[];shadow=1;" parent="i_S6I2KGw48YoNG-3xre-2" vertex="1" connectable="0">
          <mxGeometry x="-0.3393" relative="1" as="geometry">
            <mxPoint as="offset" />
          </mxGeometry>
        </mxCell>
        <mxCell id="i_S6I2KGw48YoNG-3xre-4" value="vip-job" style="rounded=1;whiteSpace=wrap;html=1;shadow=1;" parent="i_S6I2KGw48YoNG-3xre-1" vertex="1">
          <mxGeometry x="60" y="200" width="120" height="60" as="geometry" />
        </mxCell>
        <mxCell id="i_S6I2KGw48YoNG-3xre-5" value="vip-async-task" style="rounded=1;whiteSpace=wrap;html=1;shadow=1;" parent="i_S6I2KGw48YoNG-3xre-1" vertex="1">
          <mxGeometry x="400" y="200" width="120" height="60" as="geometry" />
        </mxCell>
        <mxCell id="i_S6I2KGw48YoNG-3xre-6" value="read" style="edgeStyle=orthogonalEdgeStyle;rounded=0;orthogonalLoop=1;jettySize=auto;html=1;shadow=1;" parent="i_S6I2KGw48YoNG-3xre-1" source="i_S6I2KGw48YoNG-3xre-7" target="i_S6I2KGw48YoNG-3xre-5" edge="1">
          <mxGeometry relative="1" as="geometry" />
        </mxCell>
        <mxCell id="i_S6I2KGw48YoNG-3xre-7" value="DB" style="shape=cylinder3;whiteSpace=wrap;html=1;boundedLbl=1;backgroundOutline=1;size=15;shadow=1;" parent="i_S6I2KGw48YoNG-3xre-1" vertex="1">
          <mxGeometry x="260" y="190" width="60" height="80" as="geometry" />
        </mxCell>
      </root>
    </mxGraphModel>
  </diagram>
  <diagram id="C5RBs43oDa-KdzZeNtuy" name="Page-2">
    <mxGraphModel dx="1249" dy="520" grid="1" gridSize="10" guides="1" tooltips="1" connect="1" arrows="1" fold="1" page="1" pageScale="1" pageWidth="827" pageHeight="1169" math="0" shadow="0">
      <root>
        <mxCell id="WIyWlLk6GJQsqaUBKTNV-0" />
        <mxCell id="WIyWlLk6GJQsqaUBKTNV-1" parent="WIyWlLk6GJQsqaUBKTNV-0" />
        <mxCell id="_gw4T7FBcAF71q5ikxwi-28" value="" style="rounded=0;whiteSpace=wrap;html=1;shadow=1;" vertex="1" parent="WIyWlLk6GJQsqaUBKTNV-1">
          <mxGeometry x="330" y="410" width="120" height="60" as="geometry" />
        </mxCell>
        <mxCell id="_gw4T7FBcAF71q5ikxwi-25" value="" style="shape=parallelogram;perimeter=parallelogramPerimeter;whiteSpace=wrap;html=1;fixedSize=1;shadow=1;" vertex="1" parent="WIyWlLk6GJQsqaUBKTNV-1">
          <mxGeometry x="330" y="100" width="120" height="60" as="geometry" />
        </mxCell>
        <mxCell id="_gw4T7FBcAF71q5ikxwi-18" style="edgeStyle=orthogonalEdgeStyle;rounded=0;orthogonalLoop=1;jettySize=auto;html=1;entryX=0.5;entryY=0;entryDx=0;entryDy=0;entryPerimeter=0;exitX=0.5;exitY=1;exitDx=0;exitDy=0;shadow=1;" edge="1" parent="WIyWlLk6GJQsqaUBKTNV-1" source="_gw4T7FBcAF71q5ikxwi-13" target="_gw4T7FBcAF71q5ikxwi-15">
          <mxGeometry relative="1" as="geometry" />
        </mxCell>
        <mxCell id="_gw4T7FBcAF71q5ikxwi-29" value="produce" style="edgeLabel;html=1;align=center;verticalAlign=middle;resizable=0;points=[];shadow=1;" vertex="1" connectable="0" parent="_gw4T7FBcAF71q5ikxwi-18">
          <mxGeometry x="-0.265" y="-1" relative="1" as="geometry">
            <mxPoint as="offset" />
          </mxGeometry>
        </mxCell>
        <mxCell id="PSVRd-ZREU_d1xW748J7-1" style="edgeStyle=orthogonalEdgeStyle;rounded=0;orthogonalLoop=1;jettySize=auto;html=1;entryX=0;entryY=0.5;entryDx=0;entryDy=0;entryPerimeter=0;shadow=1;" edge="1" parent="WIyWlLk6GJQsqaUBKTNV-1" source="_gw4T7FBcAF71q5ikxwi-13" target="PSVRd-ZREU_d1xW748J7-0">
          <mxGeometry relative="1" as="geometry" />
        </mxCell>
        <mxCell id="PSVRd-ZREU_d1xW748J7-2" value="read config" style="edgeLabel;html=1;align=center;verticalAlign=middle;resizable=0;points=[];shadow=1;" vertex="1" connectable="0" parent="PSVRd-ZREU_d1xW748J7-1">
          <mxGeometry x="0.2362" y="-3" relative="1" as="geometry">
            <mxPoint as="offset" />
          </mxGeometry>
        </mxCell>
        <mxCell id="_gw4T7FBcAF71q5ikxwi-13" value="AutoRenewJob" style="shape=parallelogram;perimeter=parallelogramPerimeter;whiteSpace=wrap;html=1;fixedSize=1;shadow=1;" vertex="1" parent="WIyWlLk6GJQsqaUBKTNV-1">
          <mxGeometry x="350" y="120" width="120" height="60" as="geometry" />
        </mxCell>
        <mxCell id="_gw4T7FBcAF71q5ikxwi-23" value="consume" style="edgeStyle=orthogonalEdgeStyle;rounded=0;orthogonalLoop=1;jettySize=auto;html=1;exitX=0.5;exitY=1;exitDx=0;exitDy=0;exitPerimeter=0;entryX=0.5;entryY=0;entryDx=0;entryDy=0;shadow=1;" edge="1" parent="WIyWlLk6GJQsqaUBKTNV-1" source="_gw4T7FBcAF71q5ikxwi-15" target="_gw4T7FBcAF71q5ikxwi-27">
          <mxGeometry relative="1" as="geometry">
            <mxPoint x="410" y="390.0000000000001" as="targetPoint" />
          </mxGeometry>
        </mxCell>
        <mxCell id="_gw4T7FBcAF71q5ikxwi-15" value="RMQ" style="shape=cylinder3;whiteSpace=wrap;html=1;boundedLbl=1;backgroundOutline=1;size=15;shadow=1;" vertex="1" parent="WIyWlLk6GJQsqaUBKTNV-1">
          <mxGeometry x="360" y="250" width="100" height="80" as="geometry" />
        </mxCell>
        <mxCell id="_gw4T7FBcAF71q5ikxwi-22" value="message&lt;br&gt;{id、type、data}" style="shape=document;whiteSpace=wrap;html=1;boundedLbl=1;shadow=1;" vertex="1" parent="WIyWlLk6GJQsqaUBKTNV-1">
          <mxGeometry x="140" y="250" width="140" height="80" as="geometry" />
        </mxCell>
        <mxCell id="PSVRd-ZREU_d1xW748J7-3" style="edgeStyle=orthogonalEdgeStyle;rounded=0;orthogonalLoop=1;jettySize=auto;html=1;entryX=0.5;entryY=1;entryDx=0;entryDy=0;entryPerimeter=0;shadow=1;" edge="1" parent="WIyWlLk6GJQsqaUBKTNV-1" source="_gw4T7FBcAF71q5ikxwi-27" target="PSVRd-ZREU_d1xW748J7-0">
          <mxGeometry relative="1" as="geometry" />
        </mxCell>
        <mxCell id="_gw4T7FBcAF71q5ikxwi-27" value="&lt;span&gt;AutoRenewConsumer&lt;/span&gt;" style="rounded=0;whiteSpace=wrap;html=1;shadow=1;" vertex="1" parent="WIyWlLk6GJQsqaUBKTNV-1">
          <mxGeometry x="350" y="390" width="120" height="60" as="geometry" />
        </mxCell>
        <mxCell id="PSVRd-ZREU_d1xW748J7-0" value="DB" style="shape=cylinder3;whiteSpace=wrap;html=1;boundedLbl=1;backgroundOutline=1;size=15;shadow=1;" vertex="1" parent="WIyWlLk6GJQsqaUBKTNV-1">
          <mxGeometry x="580" y="110" width="60" height="80" as="geometry" />
        </mxCell>
      </root>
    </mxGraphModel>
  </diagram>
  <diagram id="yagzf1TnHyN9wyIHIooJ" name="Page-3">
    <mxGraphModel dx="1185" dy="635" grid="1" gridSize="10" guides="1" tooltips="1" connect="1" arrows="1" fold="1" page="1" pageScale="1" pageWidth="827" pageHeight="1169" math="0" shadow="0">
      <root>
        <mxCell id="FEUMVkMEu-WrFCvZQM4a-0" />
        <mxCell id="FEUMVkMEu-WrFCvZQM4a-1" parent="FEUMVkMEu-WrFCvZQM4a-0" />
        <mxCell id="I2ShjsBsBodH7ehsXeIA-2" value="" style="edgeStyle=orthogonalEdgeStyle;rounded=0;orthogonalLoop=1;jettySize=auto;html=1;entryX=0.5;entryY=0;entryDx=0;entryDy=0;shadow=1;" parent="FEUMVkMEu-WrFCvZQM4a-1" source="I2ShjsBsBodH7ehsXeIA-0" target="DK0cdMqG_rclkaFEUeQZ-0" edge="1">
          <mxGeometry relative="1" as="geometry" />
        </mxCell>
        <mxCell id="I2ShjsBsBodH7ehsXeIA-0" value="start" style="strokeWidth=2;html=1;shape=mxgraph.flowchart.start_1;whiteSpace=wrap;shadow=1;" parent="FEUMVkMEu-WrFCvZQM4a-1" vertex="1">
          <mxGeometry x="631" y="77" width="72" height="30" as="geometry" />
        </mxCell>
        <mxCell id="41rbAn2SMDF2DWt5zt-J-13" style="edgeStyle=orthogonalEdgeStyle;rounded=0;orthogonalLoop=1;jettySize=auto;html=1;entryX=0;entryY=0.75;entryDx=0;entryDy=0;fontSize=12;fontColor=#000000;exitX=0.5;exitY=1;exitDx=0;exitDy=0;shadow=1;" parent="FEUMVkMEu-WrFCvZQM4a-1" source="LK3eZ1tqnNF5GHP6GT8g-4" target="DK0cdMqG_rclkaFEUeQZ-10" edge="1">
          <mxGeometry relative="1" as="geometry" />
        </mxCell>
        <mxCell id="41rbAn2SMDF2DWt5zt-J-16" value="next_renew_time + 1d" style="edgeLabel;html=1;align=center;verticalAlign=middle;resizable=0;points=[];fontSize=12;fontColor=#000000;" parent="41rbAn2SMDF2DWt5zt-J-13" vertex="1" connectable="0">
          <mxGeometry x="0.4311" relative="1" as="geometry">
            <mxPoint as="offset" />
          </mxGeometry>
        </mxCell>
        <mxCell id="LK3eZ1tqnNF5GHP6GT8g-4" value="免费订单" style="whiteSpace=wrap;html=1;strokeWidth=1;shadow=1;" parent="FEUMVkMEu-WrFCvZQM4a-1" vertex="1">
          <mxGeometry x="10" y="430" width="120" height="60" as="geometry" />
        </mxCell>
        <mxCell id="LK3eZ1tqnNF5GHP6GT8g-9" value="宽限期" style="edgeStyle=orthogonalEdgeStyle;rounded=0;orthogonalLoop=1;jettySize=auto;html=1;exitX=0;exitY=0.5;exitDx=0;exitDy=0;entryX=0.5;entryY=0;entryDx=0;entryDy=0;shadow=1;" parent="FEUMVkMEu-WrFCvZQM4a-1" source="DK0cdMqG_rclkaFEUeQZ-1" target="41rbAn2SMDF2DWt5zt-J-3" edge="1">
          <mxGeometry relative="1" as="geometry">
            <mxPoint x="180" y="270" as="targetPoint" />
          </mxGeometry>
        </mxCell>
        <mxCell id="LK3eZ1tqnNF5GHP6GT8g-12" value="无效" style="edgeStyle=orthogonalEdgeStyle;rounded=0;orthogonalLoop=1;jettySize=auto;html=1;exitX=0.5;exitY=1;exitDx=0;exitDy=0;entryX=0.5;entryY=0;entryDx=0;entryDy=0;shadow=1;" parent="FEUMVkMEu-WrFCvZQM4a-1" source="DK0cdMqG_rclkaFEUeQZ-1" target="DK0cdMqG_rclkaFEUeQZ-8" edge="1">
          <mxGeometry relative="1" as="geometry">
            <mxPoint x="580" y="290" as="sourcePoint" />
          </mxGeometry>
        </mxCell>
        <mxCell id="LK3eZ1tqnNF5GHP6GT8g-15" style="edgeStyle=orthogonalEdgeStyle;rounded=0;orthogonalLoop=1;jettySize=auto;html=1;entryX=1;entryY=0.5;entryDx=0;entryDy=0;exitX=0.5;exitY=1;exitDx=0;exitDy=0;shadow=1;" parent="FEUMVkMEu-WrFCvZQM4a-1" source="LK3eZ1tqnNF5GHP6GT8g-11" target="DK0cdMqG_rclkaFEUeQZ-10" edge="1">
          <mxGeometry relative="1" as="geometry" />
        </mxCell>
        <mxCell id="41rbAn2SMDF2DWt5zt-J-15" value="next_renew_time + 1m" style="edgeLabel;html=1;align=center;verticalAlign=middle;resizable=0;points=[];fontSize=12;fontColor=#000000;" parent="LK3eZ1tqnNF5GHP6GT8g-15" vertex="1" connectable="0">
          <mxGeometry x="0.0841" y="1" relative="1" as="geometry">
            <mxPoint x="14.67" y="-51" as="offset" />
          </mxGeometry>
        </mxCell>
        <mxCell id="LK3eZ1tqnNF5GHP6GT8g-11" value="代扣订单" style="whiteSpace=wrap;html=1;shadow=1;" parent="FEUMVkMEu-WrFCvZQM4a-1" vertex="1">
          <mxGeometry x="500" y="430" width="120" height="60" as="geometry" />
        </mxCell>
        <mxCell id="LK3eZ1tqnNF5GHP6GT8g-16" value="end" style="ellipse;whiteSpace=wrap;html=1;strokeWidth=2;shadow=1;" parent="FEUMVkMEu-WrFCvZQM4a-1" vertex="1">
          <mxGeometry x="632" y="680" width="70" height="27.5" as="geometry" />
        </mxCell>
        <mxCell id="LK3eZ1tqnNF5GHP6GT8g-21" value="" style="edgeStyle=orthogonalEdgeStyle;rounded=0;orthogonalLoop=1;jettySize=auto;html=1;" parent="FEUMVkMEu-WrFCvZQM4a-1" edge="1">
          <mxGeometry relative="1" as="geometry">
            <mxPoint x="500" y="190" as="sourcePoint" />
          </mxGeometry>
        </mxCell>
        <mxCell id="LK3eZ1tqnNF5GHP6GT8g-23" value="" style="edgeStyle=orthogonalEdgeStyle;rounded=0;orthogonalLoop=1;jettySize=auto;html=1;" parent="FEUMVkMEu-WrFCvZQM4a-1" edge="1">
          <mxGeometry relative="1" as="geometry">
            <mxPoint x="500" y="290" as="sourcePoint" />
          </mxGeometry>
        </mxCell>
        <mxCell id="DK0cdMqG_rclkaFEUeQZ-2" value="否" style="edgeStyle=orthogonalEdgeStyle;rounded=0;orthogonalLoop=1;jettySize=auto;html=1;shadow=1;" parent="FEUMVkMEu-WrFCvZQM4a-1" source="DK0cdMqG_rclkaFEUeQZ-0" target="DK0cdMqG_rclkaFEUeQZ-1" edge="1">
          <mxGeometry relative="1" as="geometry" />
        </mxCell>
        <mxCell id="DK0cdMqG_rclkaFEUeQZ-5" value="是" style="edgeStyle=orthogonalEdgeStyle;rounded=0;orthogonalLoop=1;jettySize=auto;html=1;shadow=1;" parent="FEUMVkMEu-WrFCvZQM4a-1" source="DK0cdMqG_rclkaFEUeQZ-0" target="LK3eZ1tqnNF5GHP6GT8g-16" edge="1">
          <mxGeometry relative="1" as="geometry" />
        </mxCell>
        <mxCell id="DK0cdMqG_rclkaFEUeQZ-0" value="重复续费？" style="rhombus;whiteSpace=wrap;html=1;shadow=1;" parent="FEUMVkMEu-WrFCvZQM4a-1" vertex="1">
          <mxGeometry x="627" y="140" width="80" height="80" as="geometry" />
        </mxCell>
        <mxCell id="DK0cdMqG_rclkaFEUeQZ-4" value="有效" style="edgeStyle=orthogonalEdgeStyle;rounded=0;orthogonalLoop=1;jettySize=auto;html=1;entryX=0.5;entryY=0;entryDx=0;entryDy=0;shadow=1;" parent="FEUMVkMEu-WrFCvZQM4a-1" source="DK0cdMqG_rclkaFEUeQZ-1" target="LK3eZ1tqnNF5GHP6GT8g-11" edge="1">
          <mxGeometry relative="1" as="geometry">
            <mxPoint x="250" y="440" as="targetPoint" />
          </mxGeometry>
        </mxCell>
        <mxCell id="DK0cdMqG_rclkaFEUeQZ-1" value="合作方续费状态" style="rhombus;whiteSpace=wrap;html=1;shadow=1;" parent="FEUMVkMEu-WrFCvZQM4a-1" vertex="1">
          <mxGeometry x="340" y="230" width="80" height="80" as="geometry" />
        </mxCell>
        <mxCell id="41rbAn2SMDF2DWt5zt-J-2" value="renew_status=0" style="edgeStyle=orthogonalEdgeStyle;rounded=0;orthogonalLoop=1;jettySize=auto;html=1;entryX=0.5;entryY=0;entryDx=0;entryDy=0;fontSize=12;fontColor=#000000;exitX=0.5;exitY=1;exitDx=0;exitDy=0;shadow=1;" parent="FEUMVkMEu-WrFCvZQM4a-1" source="DK0cdMqG_rclkaFEUeQZ-8" target="DK0cdMqG_rclkaFEUeQZ-10" edge="1">
          <mxGeometry relative="1" as="geometry" />
        </mxCell>
        <mxCell id="DK0cdMqG_rclkaFEUeQZ-8" value="同步取消续费" style="rounded=0;whiteSpace=wrap;html=1;shadow=1;" parent="FEUMVkMEu-WrFCvZQM4a-1" vertex="1">
          <mxGeometry x="320" y="430" width="120" height="60" as="geometry" />
        </mxCell>
        <mxCell id="41rbAn2SMDF2DWt5zt-J-1" style="edgeStyle=orthogonalEdgeStyle;rounded=0;orthogonalLoop=1;jettySize=auto;html=1;fontSize=12;fontColor=#000000;entryX=0;entryY=0.5;entryDx=0;entryDy=0;exitX=0.5;exitY=1;exitDx=0;exitDy=0;shadow=1;" parent="FEUMVkMEu-WrFCvZQM4a-1" source="DK0cdMqG_rclkaFEUeQZ-10" target="LK3eZ1tqnNF5GHP6GT8g-16" edge="1">
          <mxGeometry relative="1" as="geometry">
            <mxPoint x="630" y="493.75" as="targetPoint" />
          </mxGeometry>
        </mxCell>
        <mxCell id="DK0cdMqG_rclkaFEUeQZ-10" value="更新用户续费信息" style="whiteSpace=wrap;html=1;shadow=1;" parent="FEUMVkMEu-WrFCvZQM4a-1" vertex="1">
          <mxGeometry x="320" y="570" width="120" height="60" as="geometry" />
        </mxCell>
        <mxCell id="41rbAn2SMDF2DWt5zt-J-4" style="edgeStyle=orthogonalEdgeStyle;rounded=0;orthogonalLoop=1;jettySize=auto;html=1;entryX=0.5;entryY=0;entryDx=0;entryDy=0;fontSize=12;fontColor=#000000;shadow=1;" parent="FEUMVkMEu-WrFCvZQM4a-1" source="41rbAn2SMDF2DWt5zt-J-3" target="LK3eZ1tqnNF5GHP6GT8g-4" edge="1">
          <mxGeometry relative="1" as="geometry" />
        </mxCell>
        <mxCell id="41rbAn2SMDF2DWt5zt-J-5" value="否" style="edgeLabel;html=1;align=center;verticalAlign=middle;resizable=0;points=[];fontSize=12;fontColor=#000000;shadow=1;" parent="41rbAn2SMDF2DWt5zt-J-4" vertex="1" connectable="0">
          <mxGeometry x="-0.25" y="1" relative="1" as="geometry">
            <mxPoint as="offset" />
          </mxGeometry>
        </mxCell>
        <mxCell id="41rbAn2SMDF2DWt5zt-J-14" value="是" style="edgeStyle=orthogonalEdgeStyle;rounded=0;orthogonalLoop=1;jettySize=auto;html=1;entryX=0.5;entryY=0;entryDx=0;entryDy=0;shadow=1;fontSize=12;fontColor=#000000;" parent="FEUMVkMEu-WrFCvZQM4a-1" source="41rbAn2SMDF2DWt5zt-J-3" target="41rbAn2SMDF2DWt5zt-J-9" edge="1">
          <mxGeometry relative="1" as="geometry" />
        </mxCell>
        <mxCell id="41rbAn2SMDF2DWt5zt-J-3" value="是否生成宽限期订单" style="rhombus;whiteSpace=wrap;html=1;strokeWidth=1;fontSize=12;fontColor=#000000;align=center;shadow=1;" parent="FEUMVkMEu-WrFCvZQM4a-1" vertex="1">
          <mxGeometry x="190" y="300" width="80" height="80" as="geometry" />
        </mxCell>
        <mxCell id="41rbAn2SMDF2DWt5zt-J-10" value="是" style="edgeStyle=orthogonalEdgeStyle;rounded=0;orthogonalLoop=1;jettySize=auto;html=1;exitX=1;exitY=0.5;exitDx=0;exitDy=0;entryX=0;entryY=0.5;entryDx=0;entryDy=0;fontSize=12;fontColor=#000000;shadow=1;" parent="FEUMVkMEu-WrFCvZQM4a-1" source="41rbAn2SMDF2DWt5zt-J-9" target="DK0cdMqG_rclkaFEUeQZ-8" edge="1">
          <mxGeometry relative="1" as="geometry" />
        </mxCell>
        <mxCell id="41rbAn2SMDF2DWt5zt-J-18" style="edgeStyle=orthogonalEdgeStyle;rounded=0;orthogonalLoop=1;jettySize=auto;html=1;exitX=0.5;exitY=1;exitDx=0;exitDy=0;entryX=0;entryY=0.25;entryDx=0;entryDy=0;shadow=1;fontSize=12;fontColor=#000000;" parent="FEUMVkMEu-WrFCvZQM4a-1" source="41rbAn2SMDF2DWt5zt-J-9" target="DK0cdMqG_rclkaFEUeQZ-10" edge="1">
          <mxGeometry relative="1" as="geometry" />
        </mxCell>
        <mxCell id="41rbAn2SMDF2DWt5zt-J-19" value="否&lt;br&gt;next_renew_time + 1d" style="edgeLabel;html=1;align=center;verticalAlign=middle;resizable=0;points=[];fontSize=12;fontColor=#000000;" parent="41rbAn2SMDF2DWt5zt-J-18" vertex="1" connectable="0">
          <mxGeometry x="-0.2457" y="1" relative="1" as="geometry">
            <mxPoint x="-1" y="-16" as="offset" />
          </mxGeometry>
        </mxCell>
        <mxCell id="41rbAn2SMDF2DWt5zt-J-9" value="是否超过宽限期" style="rhombus;whiteSpace=wrap;html=1;strokeWidth=1;fontSize=12;fontColor=#000000;align=center;shadow=1;" parent="FEUMVkMEu-WrFCvZQM4a-1" vertex="1">
          <mxGeometry x="190" y="420" width="80" height="80" as="geometry" />
        </mxCell>
      </root>
    </mxGraphModel>
  </diagram>
  <diagram id="qdo-rfmgq2RUTje42Gof" name="Page-4">
    <mxGraphModel dx="1422" dy="762" grid="1" gridSize="10" guides="1" tooltips="1" connect="1" arrows="1" fold="1" page="1" pageScale="1" pageWidth="827" pageHeight="1169" math="0" shadow="0">
      <root>
        <mxCell id="52ajsv6EbfJxp2okRp4H-0" />
        <mxCell id="52ajsv6EbfJxp2okRp4H-1" parent="52ajsv6EbfJxp2okRp4H-0" />
        <mxCell id="xL3EzoIv5fenH6En8Fnc-5" value="" style="endArrow=none;dashed=1;html=1;" parent="52ajsv6EbfJxp2okRp4H-1" edge="1">
          <mxGeometry width="50" height="50" relative="1" as="geometry">
            <mxPoint x="200" y="159.66999999999996" as="sourcePoint" />
            <mxPoint x="580" y="160" as="targetPoint" />
          </mxGeometry>
        </mxCell>
        <mxCell id="66jTGVulMH6QejAeEHAw-0" value="合作方" style="rounded=0;whiteSpace=wrap;html=1;strokeWidth=1;" parent="52ajsv6EbfJxp2okRp4H-1" vertex="1">
          <mxGeometry x="356.99999999999994" y="40" width="66" height="240" as="geometry" />
        </mxCell>
        <mxCell id="66jTGVulMH6QejAeEHAw-1" value="" style="shape=flexArrow;endArrow=classic;html=1;" parent="52ajsv6EbfJxp2okRp4H-1" edge="1">
          <mxGeometry width="50" height="50" relative="1" as="geometry">
            <mxPoint x="246.99999999999994" y="100" as="sourcePoint" />
            <mxPoint x="356.99999999999994" y="100" as="targetPoint" />
          </mxGeometry>
        </mxCell>
        <mxCell id="66jTGVulMH6QejAeEHAw-2" value="renew&lt;br&gt;job" style="edgeLabel;html=1;align=center;verticalAlign=middle;resizable=0;points=[];" parent="66jTGVulMH6QejAeEHAw-1" vertex="1" connectable="0">
          <mxGeometry x="0.3333" y="-2" relative="1" as="geometry">
            <mxPoint x="-23.33" y="-2" as="offset" />
          </mxGeometry>
        </mxCell>
        <mxCell id="66jTGVulMH6QejAeEHAw-3" value="" style="shape=flexArrow;endArrow=classic;html=1;" parent="52ajsv6EbfJxp2okRp4H-1" edge="1">
          <mxGeometry width="50" height="50" relative="1" as="geometry">
            <mxPoint x="246.99999999999994" y="220" as="sourcePoint" />
            <mxPoint x="356.99999999999994" y="220" as="targetPoint" />
          </mxGeometry>
        </mxCell>
        <mxCell id="66jTGVulMH6QejAeEHAw-4" value="check&lt;br&gt;job" style="edgeLabel;html=1;align=center;verticalAlign=middle;resizable=0;points=[];" parent="66jTGVulMH6QejAeEHAw-3" vertex="1" connectable="0">
          <mxGeometry x="0.3333" y="-2" relative="1" as="geometry">
            <mxPoint x="-23.33" y="-2" as="offset" />
          </mxGeometry>
        </mxCell>
        <mxCell id="xL3EzoIv5fenH6En8Fnc-0" value="" style="shape=flexArrow;endArrow=classic;html=1;" parent="52ajsv6EbfJxp2okRp4H-1" edge="1">
          <mxGeometry width="50" height="50" relative="1" as="geometry">
            <mxPoint x="422.99999999999994" y="100" as="sourcePoint" />
            <mxPoint x="533" y="100" as="targetPoint" />
          </mxGeometry>
        </mxCell>
        <mxCell id="xL3EzoIv5fenH6En8Fnc-1" value="权益续订&lt;br&gt;or&lt;br&gt;取消续费" style="edgeLabel;html=1;align=center;verticalAlign=middle;resizable=0;points=[];" parent="xL3EzoIv5fenH6En8Fnc-0" vertex="1" connectable="0">
          <mxGeometry x="0.3333" y="-2" relative="1" as="geometry">
            <mxPoint x="-23.33" as="offset" />
          </mxGeometry>
        </mxCell>
        <mxCell id="xL3EzoIv5fenH6En8Fnc-2" value="" style="shape=flexArrow;endArrow=classic;html=1;" parent="52ajsv6EbfJxp2okRp4H-1" edge="1">
          <mxGeometry width="50" height="50" relative="1" as="geometry">
            <mxPoint x="422.99999999999994" y="220" as="sourcePoint" />
            <mxPoint x="533" y="220" as="targetPoint" />
          </mxGeometry>
        </mxCell>
        <mxCell id="xL3EzoIv5fenH6En8Fnc-3" value="取消续费&lt;br&gt;and&lt;br&gt;回收权益" style="edgeLabel;html=1;align=center;verticalAlign=middle;resizable=0;points=[];" parent="xL3EzoIv5fenH6En8Fnc-2" vertex="1" connectable="0">
          <mxGeometry x="0.3333" y="-2" relative="1" as="geometry">
            <mxPoint x="-23.33" as="offset" />
          </mxGeometry>
        </mxCell>
        <mxCell id="WRqOJJl0GwS2E_yZ-0y_-0" value="" style="shape=flexArrow;endArrow=classic;html=1;" parent="52ajsv6EbfJxp2okRp4H-1" edge="1">
          <mxGeometry width="50" height="50" relative="1" as="geometry">
            <mxPoint x="90" y="470.85" as="sourcePoint" />
            <mxPoint x="810" y="471.25" as="targetPoint" />
          </mxGeometry>
        </mxCell>
        <mxCell id="WRqOJJl0GwS2E_yZ-0y_-1" value="" style="shape=flexArrow;endArrow=classic;html=1;" parent="52ajsv6EbfJxp2okRp4H-1" edge="1">
          <mxGeometry width="50" height="50" relative="1" as="geometry">
            <mxPoint x="90" y="574.1" as="sourcePoint" />
            <mxPoint x="810" y="574.5" as="targetPoint" />
          </mxGeometry>
        </mxCell>
        <mxCell id="WRqOJJl0GwS2E_yZ-0y_-2" value="爱奇艺" style="text;html=1;strokeColor=none;fillColor=none;align=center;verticalAlign=middle;whiteSpace=wrap;rounded=0;" parent="52ajsv6EbfJxp2okRp4H-1" vertex="1">
          <mxGeometry x="30" y="461.25" width="40" height="20" as="geometry" />
        </mxCell>
        <mxCell id="WRqOJJl0GwS2E_yZ-0y_-3" value="合作方" style="text;html=1;strokeColor=none;fillColor=none;align=center;verticalAlign=middle;whiteSpace=wrap;rounded=0;" parent="52ajsv6EbfJxp2okRp4H-1" vertex="1">
          <mxGeometry x="30" y="564.5" width="40" height="20" as="geometry" />
        </mxCell>
        <mxCell id="WRqOJJl0GwS2E_yZ-0y_-5" value="" style="endArrow=classic;html=1;dashed=1;" parent="52ajsv6EbfJxp2okRp4H-1" edge="1">
          <mxGeometry width="50" height="50" relative="1" as="geometry">
            <mxPoint x="130" y="560" as="sourcePoint" />
            <mxPoint x="130" y="481.25" as="targetPoint" />
          </mxGeometry>
        </mxCell>
        <mxCell id="WRqOJJl0GwS2E_yZ-0y_-6" value="&lt;span style=&quot;font-size: 12px ; background-color: rgb(248 , 249 , 250)&quot;&gt;2021.3.1&lt;br&gt;开通自动续费&lt;/span&gt;" style="edgeLabel;html=1;align=center;verticalAlign=middle;resizable=0;points=[];" parent="WRqOJJl0GwS2E_yZ-0y_-5" vertex="1" connectable="0">
          <mxGeometry x="0.1533" y="2" relative="1" as="geometry">
            <mxPoint y="5.6" as="offset" />
          </mxGeometry>
        </mxCell>
        <mxCell id="WRqOJJl0GwS2E_yZ-0y_-7" value="" style="endArrow=classic;html=1;dashed=1;" parent="52ajsv6EbfJxp2okRp4H-1" edge="1">
          <mxGeometry width="50" height="50" relative="1" as="geometry">
            <mxPoint x="371" y="481.25" as="sourcePoint" />
            <mxPoint x="371" y="560" as="targetPoint" />
          </mxGeometry>
        </mxCell>
        <mxCell id="WRqOJJl0GwS2E_yZ-0y_-8" value="&lt;span style=&quot;font-size: 12px ; background-color: rgb(248 , 249 , 250)&quot;&gt;3.31&lt;br&gt;&lt;/span&gt;" style="edgeLabel;html=1;align=center;verticalAlign=middle;resizable=0;points=[];" parent="WRqOJJl0GwS2E_yZ-0y_-7" vertex="1" connectable="0">
          <mxGeometry x="0.1533" y="2" relative="1" as="geometry">
            <mxPoint as="offset" />
          </mxGeometry>
        </mxCell>
        <mxCell id="WRqOJJl0GwS2E_yZ-0y_-9" value="&lt;font style=&quot;font-size: 12px&quot;&gt;&lt;b&gt;说明：&lt;/b&gt;&lt;br style=&quot;font-size: 11px&quot;&gt;合作方需在到期前1+n天返回有效、无效、宽限期3种状态，&lt;br&gt;&lt;br style=&quot;font-size: 11px&quot;&gt;1）有效，直接续费，权益顺延（4.1~5.1），并在4.30继续同步&lt;br&gt;&lt;br style=&quot;font-size: 11px&quot;&gt;2）无效，取消续费，权益在4.1终止&lt;br&gt;&lt;br style=&quot;font-size: 11px&quot;&gt;3）宽限期，权益顺延n天（可配置），并在第二天继续重试，宽限期期间若返回有效，则顺延权益（4.n~5.n）；若返回无效，则取消续费，权益在4.n终止；若返回宽限期，继续第二天重试&lt;br&gt;&lt;br&gt;合作方B会在到期前1+n天返回有效、无效2种状态，&lt;br&gt;&lt;br&gt;&lt;/font&gt;" style="text;html=1;strokeColor=none;fillColor=none;align=left;verticalAlign=top;whiteSpace=wrap;rounded=0;fontColor=#EA6B66;" parent="52ajsv6EbfJxp2okRp4H-1" vertex="1">
          <mxGeometry x="160" y="600" width="440" height="240" as="geometry" />
        </mxCell>
        <mxCell id="WRqOJJl0GwS2E_yZ-0y_-10" value="" style="endArrow=classic;html=1;dashed=1;" parent="52ajsv6EbfJxp2okRp4H-1" edge="1">
          <mxGeometry width="50" height="50" relative="1" as="geometry">
            <mxPoint x="410" y="481.25" as="sourcePoint" />
            <mxPoint x="410" y="560" as="targetPoint" />
          </mxGeometry>
        </mxCell>
        <mxCell id="WRqOJJl0GwS2E_yZ-0y_-11" value="4.1" style="edgeLabel;html=1;align=center;verticalAlign=middle;resizable=0;points=[];" parent="WRqOJJl0GwS2E_yZ-0y_-10" vertex="1" connectable="0">
          <mxGeometry x="0.1533" y="2" relative="1" as="geometry">
            <mxPoint as="offset" />
          </mxGeometry>
        </mxCell>
        <mxCell id="WRqOJJl0GwS2E_yZ-0y_-12" value="" style="endArrow=classic;html=1;dashed=1;" parent="52ajsv6EbfJxp2okRp4H-1" edge="1">
          <mxGeometry width="50" height="50" relative="1" as="geometry">
            <mxPoint x="450" y="481.25" as="sourcePoint" />
            <mxPoint x="450" y="560" as="targetPoint" />
          </mxGeometry>
        </mxCell>
        <mxCell id="WRqOJJl0GwS2E_yZ-0y_-13" value="&lt;span style=&quot;font-size: 12px ; background-color: rgb(248 , 249 , 250)&quot;&gt;4.2&lt;br&gt;&lt;/span&gt;" style="edgeLabel;html=1;align=center;verticalAlign=middle;resizable=0;points=[];" parent="WRqOJJl0GwS2E_yZ-0y_-12" vertex="1" connectable="0">
          <mxGeometry x="0.1533" y="2" relative="1" as="geometry">
            <mxPoint as="offset" />
          </mxGeometry>
        </mxCell>
        <mxCell id="WRqOJJl0GwS2E_yZ-0y_-14" value="" style="endArrow=classic;html=1;dashed=1;" parent="52ajsv6EbfJxp2okRp4H-1" edge="1">
          <mxGeometry width="50" height="50" relative="1" as="geometry">
            <mxPoint x="490" y="481.25" as="sourcePoint" />
            <mxPoint x="490" y="560" as="targetPoint" />
          </mxGeometry>
        </mxCell>
        <mxCell id="WRqOJJl0GwS2E_yZ-0y_-15" value="&lt;span style=&quot;font-size: 12px ; background-color: rgb(248 , 249 , 250)&quot;&gt;4.3&lt;br&gt;&lt;/span&gt;" style="edgeLabel;html=1;align=center;verticalAlign=middle;resizable=0;points=[];" parent="WRqOJJl0GwS2E_yZ-0y_-14" vertex="1" connectable="0">
          <mxGeometry x="0.1533" y="2" relative="1" as="geometry">
            <mxPoint as="offset" />
          </mxGeometry>
        </mxCell>
        <mxCell id="WRqOJJl0GwS2E_yZ-0y_-16" value="" style="endArrow=classic;html=1;dashed=1;" parent="52ajsv6EbfJxp2okRp4H-1" edge="1">
          <mxGeometry width="50" height="50" relative="1" as="geometry">
            <mxPoint x="530" y="481.25" as="sourcePoint" />
            <mxPoint x="530" y="560" as="targetPoint" />
          </mxGeometry>
        </mxCell>
        <mxCell id="WRqOJJl0GwS2E_yZ-0y_-17" value="&lt;span style=&quot;font-size: 12px ; background-color: rgb(248 , 249 , 250)&quot;&gt;4.4&lt;br&gt;&lt;/span&gt;" style="edgeLabel;html=1;align=center;verticalAlign=middle;resizable=0;points=[];" parent="WRqOJJl0GwS2E_yZ-0y_-16" vertex="1" connectable="0">
          <mxGeometry x="0.1533" y="2" relative="1" as="geometry">
            <mxPoint as="offset" />
          </mxGeometry>
        </mxCell>
        <mxCell id="WRqOJJl0GwS2E_yZ-0y_-18" value="" style="shape=curlyBracket;whiteSpace=wrap;html=1;rounded=1;strokeWidth=1;fontColor=#EA6B66;align=left;rotation=90;" parent="52ajsv6EbfJxp2okRp4H-1" vertex="1">
          <mxGeometry x="256.25" y="310" width="20" height="272.5" as="geometry" />
        </mxCell>
        <mxCell id="WRqOJJl0GwS2E_yZ-0y_-19" value="" style="shape=curlyBracket;whiteSpace=wrap;html=1;rounded=1;strokeWidth=1;fontColor=#EA6B66;align=left;rotation=90;" parent="52ajsv6EbfJxp2okRp4H-1" vertex="1">
          <mxGeometry x="454.38" y="385.63" width="20" height="121.25" as="geometry" />
        </mxCell>
        <mxCell id="WRqOJJl0GwS2E_yZ-0y_-20" value="" style="shape=curlyBracket;whiteSpace=wrap;html=1;rounded=1;strokeWidth=1;fontColor=#EA6B66;align=left;rotation=90;" parent="52ajsv6EbfJxp2okRp4H-1" vertex="1">
          <mxGeometry x="638.92" y="322.35" width="20" height="247.82" as="geometry" />
        </mxCell>
        <mxCell id="WRqOJJl0GwS2E_yZ-0y_-21" value="" style="endArrow=classic;html=1;dashed=1;" parent="52ajsv6EbfJxp2okRp4H-1" edge="1">
          <mxGeometry width="50" height="50" relative="1" as="geometry">
            <mxPoint x="770" y="481.25" as="sourcePoint" />
            <mxPoint x="770" y="560" as="targetPoint" />
          </mxGeometry>
        </mxCell>
        <mxCell id="WRqOJJl0GwS2E_yZ-0y_-22" value="&lt;span style=&quot;font-size: 12px ; background-color: rgb(248 , 249 , 250)&quot;&gt;5.4&lt;br&gt;&lt;/span&gt;" style="edgeLabel;html=1;align=center;verticalAlign=middle;resizable=0;points=[];" parent="WRqOJJl0GwS2E_yZ-0y_-21" vertex="1" connectable="0">
          <mxGeometry x="0.1533" y="2" relative="1" as="geometry">
            <mxPoint as="offset" />
          </mxGeometry>
        </mxCell>
        <mxCell id="WRqOJJl0GwS2E_yZ-0y_-23" value="签约3.1~4.1" style="text;html=1;strokeColor=none;fillColor=none;align=center;verticalAlign=middle;whiteSpace=wrap;rounded=0;" parent="52ajsv6EbfJxp2okRp4H-1" vertex="1">
          <mxGeometry x="223.13" y="411.25" width="86.25" height="20" as="geometry" />
        </mxCell>
        <mxCell id="WRqOJJl0GwS2E_yZ-0y_-24" value="宽限期4.1~4.4" style="text;html=1;strokeColor=none;fillColor=none;align=center;verticalAlign=middle;whiteSpace=wrap;rounded=0;" parent="52ajsv6EbfJxp2okRp4H-1" vertex="1">
          <mxGeometry x="421.26" y="411.25" width="86.25" height="20" as="geometry" />
        </mxCell>
        <mxCell id="WRqOJJl0GwS2E_yZ-0y_-25" value="续费4.4~5.4" style="text;html=1;strokeColor=none;fillColor=none;align=center;verticalAlign=middle;whiteSpace=wrap;rounded=0;" parent="52ajsv6EbfJxp2okRp4H-1" vertex="1">
          <mxGeometry x="605.8" y="411.25" width="86.25" height="20" as="geometry" />
        </mxCell>
      </root>
    </mxGraphModel>
  </diagram>
  <diagram id="Xd37JqZOIeDN7Qy_YbHw" name="Page-5">
    <mxGraphModel dx="1422" dy="762" grid="1" gridSize="10" guides="1" tooltips="1" connect="1" arrows="1" fold="1" page="1" pageScale="1" pageWidth="827" pageHeight="1169" math="0" shadow="0">
      <root>
        <mxCell id="rjYV3mx7PR6GvbU2GmID-0" />
        <mxCell id="rjYV3mx7PR6GvbU2GmID-1" parent="rjYV3mx7PR6GvbU2GmID-0" />
        <mxCell id="rjYV3mx7PR6GvbU2GmID-10" value="rule" style="rounded=1;whiteSpace=wrap;html=1;strokeWidth=1;fontColor=#000000;align=center;verticalAlign=bottom;shadow=1;" parent="rjYV3mx7PR6GvbU2GmID-1" vertex="1">
          <mxGeometry x="220" y="260" width="340" height="80" as="geometry" />
        </mxCell>
        <mxCell id="rjYV3mx7PR6GvbU2GmID-11" value="user" style="ellipse;whiteSpace=wrap;html=1;strokeWidth=1;fontColor=#000000;align=center;shadow=1;" parent="rjYV3mx7PR6GvbU2GmID-1" vertex="1">
          <mxGeometry x="240" y="280" width="80" height="40" as="geometry" />
        </mxCell>
        <mxCell id="rjYV3mx7PR6GvbU2GmID-14" value="partner" style="ellipse;whiteSpace=wrap;html=1;strokeWidth=1;fontColor=#000000;align=center;shadow=1;" parent="rjYV3mx7PR6GvbU2GmID-1" vertex="1">
          <mxGeometry x="350" y="280" width="80" height="40" as="geometry" />
        </mxCell>
        <mxCell id="rjYV3mx7PR6GvbU2GmID-15" value="product" style="ellipse;whiteSpace=wrap;html=1;strokeWidth=1;fontColor=#000000;align=center;shadow=1;dashed=1;" parent="rjYV3mx7PR6GvbU2GmID-1" vertex="1">
          <mxGeometry x="460" y="280" width="80" height="40" as="geometry" />
        </mxCell>
        <mxCell id="rjYV3mx7PR6GvbU2GmID-16" value="operation log" style="rounded=1;whiteSpace=wrap;html=1;strokeWidth=1;fontColor=#000000;align=center;shadow=1;" parent="rjYV3mx7PR6GvbU2GmID-1" vertex="1">
          <mxGeometry x="220" y="200" width="100" height="40" as="geometry" />
        </mxCell>
        <mxCell id="rjYV3mx7PR6GvbU2GmID-17" value="order" style="rounded=1;whiteSpace=wrap;html=1;strokeWidth=1;fontColor=#000000;align=center;shadow=1;" parent="rjYV3mx7PR6GvbU2GmID-1" vertex="1">
          <mxGeometry x="340" y="200" width="100" height="40" as="geometry" />
        </mxCell>
        <mxCell id="TqOX8EHA0vyrdWg8Rpuh-0" value="grace period" style="rounded=1;whiteSpace=wrap;html=1;strokeWidth=1;fontColor=#000000;align=center;shadow=1;" parent="rjYV3mx7PR6GvbU2GmID-1" vertex="1">
          <mxGeometry x="460" y="200" width="100" height="40" as="geometry" />
        </mxCell>
        <mxCell id="TqOX8EHA0vyrdWg8Rpuh-1" value="RENEW SYSTEM" style="text;html=1;strokeColor=none;fillColor=none;align=center;verticalAlign=middle;whiteSpace=wrap;rounded=0;shadow=1;dashed=1;fontSize=12;fontColor=#000000;" parent="rjYV3mx7PR6GvbU2GmID-1" vertex="1">
          <mxGeometry x="305" y="160" width="170" height="20" as="geometry" />
        </mxCell>
        <mxCell id="TqOX8EHA0vyrdWg8Rpuh-2" value="&lt;font style=&quot;font-size: 10px&quot; color=&quot;#ea6b66&quot;&gt;1）一个用户在一个合作方下只存在一种自动续费关系，不同合作方下的自动续费关系相互独立&lt;br style=&quot;font-size: 10px&quot;&gt;&lt;br style=&quot;font-size: 10px&quot;&gt;2）用户在合作方下签约的自动续费产品不支持变更，可以解约后再重新签约新的&lt;br style=&quot;font-size: 10px&quot;&gt;&lt;br style=&quot;font-size: 10px&quot;&gt;3）宽限期绑定合作方，与产品无关&lt;/font&gt;" style="text;html=1;strokeColor=none;fillColor=none;align=left;verticalAlign=top;whiteSpace=wrap;rounded=0;shadow=1;fontSize=10;fontColor=#000000;" parent="rjYV3mx7PR6GvbU2GmID-1" vertex="1">
          <mxGeometry x="220" y="380" width="340" height="120" as="geometry" />
        </mxCell>
      </root>
    </mxGraphModel>
  </diagram>
  <diagram id="cS4fXT0NGKot7rk87k4g" name="Page-6">
    <mxGraphModel dx="1422" dy="762" grid="1" gridSize="10" guides="1" tooltips="1" connect="1" arrows="1" fold="1" page="1" pageScale="1" pageWidth="827" pageHeight="1169" math="0" shadow="0">
      <root>
        <mxCell id="IywxQjkb74sXMIThZF07-0" />
        <mxCell id="IywxQjkb74sXMIThZF07-1" parent="IywxQjkb74sXMIThZF07-0" />
        <mxCell id="IywxQjkb74sXMIThZF07-4" value="" style="edgeStyle=orthogonalEdgeStyle;rounded=0;orthogonalLoop=1;jettySize=auto;html=1;shadow=1;fontSize=10;fontColor=#000000;align=center;" parent="IywxQjkb74sXMIThZF07-1" source="IywxQjkb74sXMIThZF07-2" target="IywxQjkb74sXMIThZF07-3" edge="1">
          <mxGeometry relative="1" as="geometry" />
        </mxCell>
        <mxCell id="IywxQjkb74sXMIThZF07-2" value="start" style="ellipse;whiteSpace=wrap;html=1;shadow=1;strokeWidth=1;fontSize=10;fontColor=#000000;align=center;" parent="IywxQjkb74sXMIThZF07-1" vertex="1">
          <mxGeometry x="160" y="185" width="50" height="30" as="geometry" />
        </mxCell>
        <mxCell id="IywxQjkb74sXMIThZF07-6" value="Y" style="edgeStyle=orthogonalEdgeStyle;rounded=0;orthogonalLoop=1;jettySize=auto;html=1;shadow=1;fontSize=10;fontColor=#000000;align=center;" parent="IywxQjkb74sXMIThZF07-1" source="IywxQjkb74sXMIThZF07-3" target="IywxQjkb74sXMIThZF07-5" edge="1">
          <mxGeometry relative="1" as="geometry" />
        </mxCell>
        <mxCell id="IywxQjkb74sXMIThZF07-16" value="N" style="edgeStyle=orthogonalEdgeStyle;rounded=0;orthogonalLoop=1;jettySize=auto;html=1;shadow=1;fontSize=10;fontColor=#000000;align=center;exitX=0.5;exitY=1;exitDx=0;exitDy=0;entryX=1;entryY=0.5;entryDx=0;entryDy=0;" parent="IywxQjkb74sXMIThZF07-1" source="IywxQjkb74sXMIThZF07-3" target="IywxQjkb74sXMIThZF07-15" edge="1">
          <mxGeometry x="-0.5556" relative="1" as="geometry">
            <mxPoint as="offset" />
          </mxGeometry>
        </mxCell>
        <mxCell id="IywxQjkb74sXMIThZF07-3" value="订单已存在？" style="rhombus;whiteSpace=wrap;html=1;shadow=1;fontSize=10;align=center;strokeWidth=1;" parent="IywxQjkb74sXMIThZF07-1" vertex="1">
          <mxGeometry x="305" y="160" width="80" height="80" as="geometry" />
        </mxCell>
        <mxCell id="IywxQjkb74sXMIThZF07-8" value="Y" style="edgeStyle=orthogonalEdgeStyle;rounded=0;orthogonalLoop=1;jettySize=auto;html=1;shadow=1;fontSize=10;fontColor=#000000;align=center;" parent="IywxQjkb74sXMIThZF07-1" source="IywxQjkb74sXMIThZF07-5" target="IywxQjkb74sXMIThZF07-7" edge="1">
          <mxGeometry relative="1" as="geometry" />
        </mxCell>
        <mxCell id="IywxQjkb74sXMIThZF07-10" value="N" style="edgeStyle=orthogonalEdgeStyle;rounded=0;orthogonalLoop=1;jettySize=auto;html=1;shadow=1;fontSize=10;fontColor=#000000;align=center;" parent="IywxQjkb74sXMIThZF07-1" source="IywxQjkb74sXMIThZF07-5" target="IywxQjkb74sXMIThZF07-9" edge="1">
          <mxGeometry x="-0.68" relative="1" as="geometry">
            <mxPoint as="offset" />
          </mxGeometry>
        </mxCell>
        <mxCell id="IywxQjkb74sXMIThZF07-5" value="订单已完成？" style="rhombus;whiteSpace=wrap;html=1;shadow=1;fontSize=10;align=center;strokeWidth=1;" parent="IywxQjkb74sXMIThZF07-1" vertex="1">
          <mxGeometry x="494" y="160" width="80" height="80" as="geometry" />
        </mxCell>
        <mxCell id="IywxQjkb74sXMIThZF07-7" value="end" style="ellipse;whiteSpace=wrap;html=1;shadow=1;strokeWidth=1;fontSize=10;fontColor=#000000;align=center;" parent="IywxQjkb74sXMIThZF07-1" vertex="1">
          <mxGeometry x="715" y="185" width="50" height="30" as="geometry" />
        </mxCell>
        <mxCell id="IywxQjkb74sXMIThZF07-12" value="" style="edgeStyle=orthogonalEdgeStyle;rounded=0;orthogonalLoop=1;jettySize=auto;html=1;shadow=1;fontSize=10;fontColor=#000000;align=center;" parent="IywxQjkb74sXMIThZF07-1" source="IywxQjkb74sXMIThZF07-9" target="IywxQjkb74sXMIThZF07-11" edge="1">
          <mxGeometry relative="1" as="geometry" />
        </mxCell>
        <mxCell id="IywxQjkb74sXMIThZF07-9" value="开通权益（重试）" style="whiteSpace=wrap;html=1;shadow=1;fontSize=10;strokeWidth=1;" parent="IywxQjkb74sXMIThZF07-1" vertex="1">
          <mxGeometry x="474" y="490" width="120" height="60" as="geometry" />
        </mxCell>
        <mxCell id="IywxQjkb74sXMIThZF07-30" style="edgeStyle=orthogonalEdgeStyle;rounded=0;orthogonalLoop=1;jettySize=auto;html=1;entryX=0.5;entryY=1;entryDx=0;entryDy=0;shadow=1;fontSize=10;fontColor=#000000;align=center;" parent="IywxQjkb74sXMIThZF07-1" source="IywxQjkb74sXMIThZF07-11" target="IywxQjkb74sXMIThZF07-7" edge="1">
          <mxGeometry relative="1" as="geometry" />
        </mxCell>
        <mxCell id="IywxQjkb74sXMIThZF07-11" value="回填用户&amp;amp;订单信息" style="whiteSpace=wrap;html=1;shadow=1;fontSize=10;strokeWidth=1;" parent="IywxQjkb74sXMIThZF07-1" vertex="1">
          <mxGeometry x="680" y="490" width="120" height="60" as="geometry" />
        </mxCell>
        <mxCell id="IywxQjkb74sXMIThZF07-18" value="N" style="edgeStyle=orthogonalEdgeStyle;rounded=0;orthogonalLoop=1;jettySize=auto;html=1;shadow=1;fontSize=10;fontColor=#000000;align=center;" parent="IywxQjkb74sXMIThZF07-1" source="IywxQjkb74sXMIThZF07-15" target="IywxQjkb74sXMIThZF07-17" edge="1">
          <mxGeometry relative="1" as="geometry" />
        </mxCell>
        <mxCell id="IywxQjkb74sXMIThZF07-31" style="edgeStyle=orthogonalEdgeStyle;rounded=0;orthogonalLoop=1;jettySize=auto;html=1;exitX=0;exitY=0.5;exitDx=0;exitDy=0;entryX=0;entryY=0.5;entryDx=0;entryDy=0;shadow=1;fontSize=10;fontColor=#000000;align=center;" parent="IywxQjkb74sXMIThZF07-1" source="IywxQjkb74sXMIThZF07-15" target="IywxQjkb74sXMIThZF07-21" edge="1">
          <mxGeometry relative="1" as="geometry">
            <Array as="points">
              <mxPoint x="80" y="300" />
              <mxPoint x="80" y="520" />
            </Array>
          </mxGeometry>
        </mxCell>
        <mxCell id="IywxQjkb74sXMIThZF07-32" value="Y" style="edgeLabel;html=1;align=center;verticalAlign=middle;resizable=0;points=[];fontSize=10;fontColor=#000000;" parent="IywxQjkb74sXMIThZF07-31" vertex="1" connectable="0">
          <mxGeometry x="0.4513" y="2" relative="1" as="geometry">
            <mxPoint x="28" y="-189" as="offset" />
          </mxGeometry>
        </mxCell>
        <mxCell id="IywxQjkb74sXMIThZF07-15" value="用户已存在？" style="rhombus;whiteSpace=wrap;html=1;shadow=1;fontSize=10;align=center;strokeWidth=1;" parent="IywxQjkb74sXMIThZF07-1" vertex="1">
          <mxGeometry x="145" y="260" width="80" height="80" as="geometry" />
        </mxCell>
        <mxCell id="IywxQjkb74sXMIThZF07-22" value="" style="edgeStyle=orthogonalEdgeStyle;rounded=0;orthogonalLoop=1;jettySize=auto;html=1;shadow=1;fontSize=10;fontColor=#000000;align=center;exitX=0.5;exitY=1;exitDx=0;exitDy=0;" parent="IywxQjkb74sXMIThZF07-1" source="IywxQjkb74sXMIThZF07-17" target="IywxQjkb74sXMIThZF07-21" edge="1">
          <mxGeometry relative="1" as="geometry" />
        </mxCell>
        <mxCell id="IywxQjkb74sXMIThZF07-17" value="创建用户" style="whiteSpace=wrap;html=1;shadow=1;fontSize=10;strokeWidth=1;" parent="IywxQjkb74sXMIThZF07-1" vertex="1">
          <mxGeometry x="125" y="380" width="120" height="60" as="geometry" />
        </mxCell>
        <mxCell id="IywxQjkb74sXMIThZF07-24" value="Y" style="edgeStyle=orthogonalEdgeStyle;rounded=0;orthogonalLoop=1;jettySize=auto;html=1;shadow=1;fontSize=10;fontColor=#000000;align=center;" parent="IywxQjkb74sXMIThZF07-1" source="IywxQjkb74sXMIThZF07-21" target="IywxQjkb74sXMIThZF07-23" edge="1">
          <mxGeometry relative="1" as="geometry" />
        </mxCell>
        <mxCell id="IywxQjkb74sXMIThZF07-27" style="edgeStyle=orthogonalEdgeStyle;rounded=0;orthogonalLoop=1;jettySize=auto;html=1;entryX=0;entryY=0.5;entryDx=0;entryDy=0;shadow=1;fontSize=10;fontColor=#000000;align=center;" parent="IywxQjkb74sXMIThZF07-1" source="IywxQjkb74sXMIThZF07-21" target="IywxQjkb74sXMIThZF07-25" edge="1">
          <mxGeometry relative="1" as="geometry" />
        </mxCell>
        <mxCell id="IywxQjkb74sXMIThZF07-29" value="N" style="edgeLabel;html=1;align=center;verticalAlign=middle;resizable=0;points=[];fontSize=10;fontColor=#000000;" parent="IywxQjkb74sXMIThZF07-27" vertex="1" connectable="0">
          <mxGeometry x="-0.1315" relative="1" as="geometry">
            <mxPoint as="offset" />
          </mxGeometry>
        </mxCell>
        <mxCell id="IywxQjkb74sXMIThZF07-21" value="首免优惠？" style="rhombus;whiteSpace=wrap;html=1;shadow=1;strokeWidth=1;fontSize=10;fontColor=#000000;align=center;" parent="IywxQjkb74sXMIThZF07-1" vertex="1">
          <mxGeometry x="145" y="480" width="80" height="80" as="geometry" />
        </mxCell>
        <mxCell id="IywxQjkb74sXMIThZF07-26" value="" style="edgeStyle=orthogonalEdgeStyle;rounded=0;orthogonalLoop=1;jettySize=auto;html=1;shadow=1;fontSize=10;fontColor=#000000;align=center;" parent="IywxQjkb74sXMIThZF07-1" source="IywxQjkb74sXMIThZF07-23" target="IywxQjkb74sXMIThZF07-25" edge="1">
          <mxGeometry relative="1" as="geometry" />
        </mxCell>
        <mxCell id="IywxQjkb74sXMIThZF07-23" value="优惠次数-1" style="whiteSpace=wrap;html=1;shadow=1;fontSize=10;strokeWidth=1;" parent="IywxQjkb74sXMIThZF07-1" vertex="1">
          <mxGeometry x="125" y="600" width="120" height="60" as="geometry" />
        </mxCell>
        <mxCell id="IywxQjkb74sXMIThZF07-28" style="edgeStyle=orthogonalEdgeStyle;rounded=0;orthogonalLoop=1;jettySize=auto;html=1;entryX=0;entryY=0.5;entryDx=0;entryDy=0;shadow=1;fontSize=10;fontColor=#000000;align=center;" parent="IywxQjkb74sXMIThZF07-1" source="IywxQjkb74sXMIThZF07-25" target="IywxQjkb74sXMIThZF07-9" edge="1">
          <mxGeometry relative="1" as="geometry" />
        </mxCell>
        <mxCell id="IywxQjkb74sXMIThZF07-25" value="创建订单" style="whiteSpace=wrap;html=1;shadow=1;fontSize=10;strokeWidth=1;" parent="IywxQjkb74sXMIThZF07-1" vertex="1">
          <mxGeometry x="285" y="490" width="120" height="60" as="geometry" />
        </mxCell>
      </root>
    </mxGraphModel>
  </diagram>
  <diagram id="BFeXYU2smA1HwdRWTPqj" name="Page-7">
    <mxGraphModel dx="813" dy="1604" grid="1" gridSize="10" guides="1" tooltips="1" connect="1" arrows="1" fold="1" page="1" pageScale="1" pageWidth="827" pageHeight="1169" math="0" shadow="0">
      <root>
        <mxCell id="uwi3nF_uWD4Z5xsP9Vq4-0" />
        <mxCell id="uwi3nF_uWD4Z5xsP9Vq4-1" parent="uwi3nF_uWD4Z5xsP9Vq4-0" />
        <mxCell id="pFc9fvCr-5DMcOuQmoxq-0" value="" style="edgeStyle=orthogonalEdgeStyle;rounded=0;orthogonalLoop=1;jettySize=auto;html=1;entryX=0.5;entryY=0;entryDx=0;entryDy=0;shadow=1;" edge="1" parent="uwi3nF_uWD4Z5xsP9Vq4-1" source="pFc9fvCr-5DMcOuQmoxq-1" target="pFc9fvCr-5DMcOuQmoxq-13">
          <mxGeometry relative="1" as="geometry" />
        </mxCell>
        <mxCell id="pFc9fvCr-5DMcOuQmoxq-1" value="start" style="strokeWidth=2;html=1;shape=mxgraph.flowchart.start_1;whiteSpace=wrap;shadow=1;" vertex="1" parent="uwi3nF_uWD4Z5xsP9Vq4-1">
          <mxGeometry x="484" y="-110" width="72" height="30" as="geometry" />
        </mxCell>
        <mxCell id="pFc9fvCr-5DMcOuQmoxq-2" style="edgeStyle=orthogonalEdgeStyle;rounded=0;orthogonalLoop=1;jettySize=auto;html=1;entryX=0;entryY=0.75;entryDx=0;entryDy=0;fontSize=12;fontColor=#000000;exitX=0.5;exitY=1;exitDx=0;exitDy=0;shadow=1;" edge="1" parent="uwi3nF_uWD4Z5xsP9Vq4-1" source="pFc9fvCr-5DMcOuQmoxq-4" target="pFc9fvCr-5DMcOuQmoxq-19">
          <mxGeometry relative="1" as="geometry" />
        </mxCell>
        <mxCell id="pFc9fvCr-5DMcOuQmoxq-3" value="next_renew_time + 1d" style="edgeLabel;html=1;align=center;verticalAlign=middle;resizable=0;points=[];fontSize=12;fontColor=#000000;" vertex="1" connectable="0" parent="pFc9fvCr-5DMcOuQmoxq-2">
          <mxGeometry x="0.4311" relative="1" as="geometry">
            <mxPoint x="-149.29" y="-75.01" as="offset" />
          </mxGeometry>
        </mxCell>
        <mxCell id="pFc9fvCr-5DMcOuQmoxq-4" value="免费订单" style="whiteSpace=wrap;html=1;strokeWidth=1;shadow=1;" vertex="1" parent="uwi3nF_uWD4Z5xsP9Vq4-1">
          <mxGeometry x="10" y="450" width="120" height="60" as="geometry" />
        </mxCell>
        <mxCell id="pFc9fvCr-5DMcOuQmoxq-5" value="宽限期&lt;br&gt;status=2" style="edgeStyle=orthogonalEdgeStyle;rounded=0;orthogonalLoop=1;jettySize=auto;html=1;exitX=0;exitY=0.5;exitDx=0;exitDy=0;entryX=1;entryY=0.5;entryDx=0;entryDy=0;shadow=1;" edge="1" parent="uwi3nF_uWD4Z5xsP9Vq4-1" source="pFc9fvCr-5DMcOuQmoxq-15" target="pFc9fvCr-5DMcOuQmoxq-23">
          <mxGeometry relative="1" as="geometry">
            <mxPoint x="180" y="270" as="targetPoint" />
          </mxGeometry>
        </mxCell>
        <mxCell id="pFc9fvCr-5DMcOuQmoxq-6" value="无效&lt;br&gt;status=0" style="edgeStyle=orthogonalEdgeStyle;rounded=0;orthogonalLoop=1;jettySize=auto;html=1;exitX=0.5;exitY=1;exitDx=0;exitDy=0;entryX=0.5;entryY=0;entryDx=0;entryDy=0;shadow=1;" edge="1" parent="uwi3nF_uWD4Z5xsP9Vq4-1" source="pFc9fvCr-5DMcOuQmoxq-15" target="pFc9fvCr-5DMcOuQmoxq-17">
          <mxGeometry relative="1" as="geometry">
            <mxPoint x="580" y="290" as="sourcePoint" />
          </mxGeometry>
        </mxCell>
        <mxCell id="pFc9fvCr-5DMcOuQmoxq-7" style="edgeStyle=orthogonalEdgeStyle;rounded=0;orthogonalLoop=1;jettySize=auto;html=1;entryX=1;entryY=0.5;entryDx=0;entryDy=0;exitX=0.5;exitY=1;exitDx=0;exitDy=0;shadow=1;" edge="1" parent="uwi3nF_uWD4Z5xsP9Vq4-1" source="pFc9fvCr-5DMcOuQmoxq-9" target="pFc9fvCr-5DMcOuQmoxq-19">
          <mxGeometry relative="1" as="geometry" />
        </mxCell>
        <mxCell id="pFc9fvCr-5DMcOuQmoxq-8" value="next_renew_time + 1m" style="edgeLabel;html=1;align=center;verticalAlign=middle;resizable=0;points=[];fontSize=12;fontColor=#000000;" vertex="1" connectable="0" parent="pFc9fvCr-5DMcOuQmoxq-7">
          <mxGeometry x="0.0841" y="1" relative="1" as="geometry">
            <mxPoint x="14.67" y="-51" as="offset" />
          </mxGeometry>
        </mxCell>
        <mxCell id="pFc9fvCr-5DMcOuQmoxq-9" value="代扣订单" style="whiteSpace=wrap;html=1;shadow=1;" vertex="1" parent="uwi3nF_uWD4Z5xsP9Vq4-1">
          <mxGeometry x="500" y="450" width="120" height="60" as="geometry" />
        </mxCell>
        <mxCell id="pFc9fvCr-5DMcOuQmoxq-10" value="end" style="ellipse;whiteSpace=wrap;html=1;strokeWidth=2;shadow=1;" vertex="1" parent="uwi3nF_uWD4Z5xsP9Vq4-1">
          <mxGeometry x="630" y="640" width="70" height="27.5" as="geometry" />
        </mxCell>
        <mxCell id="pFc9fvCr-5DMcOuQmoxq-11" value="否" style="edgeStyle=orthogonalEdgeStyle;rounded=0;orthogonalLoop=1;jettySize=auto;html=1;shadow=1;entryX=0.5;entryY=0;entryDx=0;entryDy=0;" edge="1" parent="uwi3nF_uWD4Z5xsP9Vq4-1" source="pFc9fvCr-5DMcOuQmoxq-13" target="pFc9fvCr-5DMcOuQmoxq-28">
          <mxGeometry x="-0.4535" relative="1" as="geometry">
            <mxPoint as="offset" />
          </mxGeometry>
        </mxCell>
        <mxCell id="pFc9fvCr-5DMcOuQmoxq-12" value="是" style="edgeStyle=orthogonalEdgeStyle;rounded=0;orthogonalLoop=1;jettySize=auto;html=1;shadow=1;" edge="1" parent="uwi3nF_uWD4Z5xsP9Vq4-1" source="pFc9fvCr-5DMcOuQmoxq-13" target="pFc9fvCr-5DMcOuQmoxq-10">
          <mxGeometry x="-0.8658" relative="1" as="geometry">
            <mxPoint as="offset" />
          </mxGeometry>
        </mxCell>
        <mxCell id="pFc9fvCr-5DMcOuQmoxq-13" value="重复续费？" style="rhombus;whiteSpace=wrap;html=1;shadow=1;" vertex="1" parent="uwi3nF_uWD4Z5xsP9Vq4-1">
          <mxGeometry x="480" y="-40" width="80" height="80" as="geometry" />
        </mxCell>
        <mxCell id="pFc9fvCr-5DMcOuQmoxq-14" value="有效&lt;br&gt;status=1" style="edgeStyle=orthogonalEdgeStyle;rounded=0;orthogonalLoop=1;jettySize=auto;html=1;entryX=0.5;entryY=0;entryDx=0;entryDy=0;shadow=1;" edge="1" parent="uwi3nF_uWD4Z5xsP9Vq4-1" source="pFc9fvCr-5DMcOuQmoxq-15" target="pFc9fvCr-5DMcOuQmoxq-9">
          <mxGeometry relative="1" as="geometry">
            <mxPoint x="250" y="440" as="targetPoint" />
          </mxGeometry>
        </mxCell>
        <mxCell id="pFc9fvCr-5DMcOuQmoxq-15" value="状态" style="rhombus;whiteSpace=wrap;html=1;shadow=1;" vertex="1" parent="uwi3nF_uWD4Z5xsP9Vq4-1">
          <mxGeometry x="340" y="320" width="80" height="80" as="geometry" />
        </mxCell>
        <mxCell id="pFc9fvCr-5DMcOuQmoxq-16" value="renew_status=0" style="edgeStyle=orthogonalEdgeStyle;rounded=0;orthogonalLoop=1;jettySize=auto;html=1;entryX=0.5;entryY=0;entryDx=0;entryDy=0;fontSize=12;fontColor=#000000;exitX=0.5;exitY=1;exitDx=0;exitDy=0;shadow=1;" edge="1" parent="uwi3nF_uWD4Z5xsP9Vq4-1" source="pFc9fvCr-5DMcOuQmoxq-17" target="pFc9fvCr-5DMcOuQmoxq-19">
          <mxGeometry relative="1" as="geometry" />
        </mxCell>
        <mxCell id="pFc9fvCr-5DMcOuQmoxq-17" value="同步取消续费" style="rounded=0;whiteSpace=wrap;html=1;shadow=1;" vertex="1" parent="uwi3nF_uWD4Z5xsP9Vq4-1">
          <mxGeometry x="320" y="450" width="120" height="60" as="geometry" />
        </mxCell>
        <mxCell id="pFc9fvCr-5DMcOuQmoxq-18" style="edgeStyle=orthogonalEdgeStyle;rounded=0;orthogonalLoop=1;jettySize=auto;html=1;fontSize=12;fontColor=#000000;entryX=0;entryY=0.5;entryDx=0;entryDy=0;exitX=0.5;exitY=1;exitDx=0;exitDy=0;shadow=1;" edge="1" parent="uwi3nF_uWD4Z5xsP9Vq4-1" source="pFc9fvCr-5DMcOuQmoxq-19" target="pFc9fvCr-5DMcOuQmoxq-10">
          <mxGeometry relative="1" as="geometry">
            <mxPoint x="630" y="493.75" as="targetPoint" />
          </mxGeometry>
        </mxCell>
        <mxCell id="pFc9fvCr-5DMcOuQmoxq-19" value="更新用户续费信息" style="whiteSpace=wrap;html=1;shadow=1;" vertex="1" parent="uwi3nF_uWD4Z5xsP9Vq4-1">
          <mxGeometry x="320" y="570" width="120" height="60" as="geometry" />
        </mxCell>
        <mxCell id="pFc9fvCr-5DMcOuQmoxq-20" style="edgeStyle=orthogonalEdgeStyle;rounded=0;orthogonalLoop=1;jettySize=auto;html=1;entryX=0.5;entryY=0;entryDx=0;entryDy=0;fontSize=12;fontColor=#000000;shadow=1;" edge="1" parent="uwi3nF_uWD4Z5xsP9Vq4-1" source="pFc9fvCr-5DMcOuQmoxq-23" target="pFc9fvCr-5DMcOuQmoxq-4">
          <mxGeometry relative="1" as="geometry" />
        </mxCell>
        <mxCell id="pFc9fvCr-5DMcOuQmoxq-21" value="否" style="edgeLabel;html=1;align=center;verticalAlign=middle;resizable=0;points=[];fontSize=12;fontColor=#000000;shadow=1;" vertex="1" connectable="0" parent="pFc9fvCr-5DMcOuQmoxq-20">
          <mxGeometry x="-0.25" y="1" relative="1" as="geometry">
            <mxPoint as="offset" />
          </mxGeometry>
        </mxCell>
        <mxCell id="pFc9fvCr-5DMcOuQmoxq-22" value="是" style="edgeStyle=orthogonalEdgeStyle;rounded=0;orthogonalLoop=1;jettySize=auto;html=1;entryX=0.5;entryY=0;entryDx=0;entryDy=0;shadow=1;fontSize=12;fontColor=#000000;" edge="1" parent="uwi3nF_uWD4Z5xsP9Vq4-1" source="pFc9fvCr-5DMcOuQmoxq-23" target="pFc9fvCr-5DMcOuQmoxq-27">
          <mxGeometry relative="1" as="geometry" />
        </mxCell>
        <mxCell id="pFc9fvCr-5DMcOuQmoxq-23" value="是否生成宽限期订单" style="rhombus;whiteSpace=wrap;html=1;strokeWidth=1;fontSize=12;fontColor=#000000;align=center;shadow=1;" vertex="1" parent="uwi3nF_uWD4Z5xsP9Vq4-1">
          <mxGeometry x="155" y="320" width="80" height="80" as="geometry" />
        </mxCell>
        <mxCell id="pFc9fvCr-5DMcOuQmoxq-24" value="是" style="edgeStyle=orthogonalEdgeStyle;rounded=0;orthogonalLoop=1;jettySize=auto;html=1;exitX=1;exitY=0.5;exitDx=0;exitDy=0;entryX=0;entryY=0.5;entryDx=0;entryDy=0;fontSize=12;fontColor=#000000;shadow=1;" edge="1" parent="uwi3nF_uWD4Z5xsP9Vq4-1" target="pFc9fvCr-5DMcOuQmoxq-17">
          <mxGeometry relative="1" as="geometry">
            <mxPoint x="235" y="480" as="sourcePoint" />
          </mxGeometry>
        </mxCell>
        <mxCell id="pFc9fvCr-5DMcOuQmoxq-25" style="edgeStyle=orthogonalEdgeStyle;rounded=0;orthogonalLoop=1;jettySize=auto;html=1;exitX=0.5;exitY=1;exitDx=0;exitDy=0;entryX=0;entryY=0.25;entryDx=0;entryDy=0;shadow=1;fontSize=12;fontColor=#000000;" edge="1" parent="uwi3nF_uWD4Z5xsP9Vq4-1" source="pFc9fvCr-5DMcOuQmoxq-27" target="pFc9fvCr-5DMcOuQmoxq-19">
          <mxGeometry relative="1" as="geometry" />
        </mxCell>
        <mxCell id="pFc9fvCr-5DMcOuQmoxq-26" value="否&lt;br&gt;next_renew_time + 1d" style="edgeLabel;html=1;align=center;verticalAlign=middle;resizable=0;points=[];fontSize=12;fontColor=#000000;" vertex="1" connectable="0" parent="pFc9fvCr-5DMcOuQmoxq-25">
          <mxGeometry x="-0.2457" y="1" relative="1" as="geometry">
            <mxPoint x="-6.4" y="-34.03" as="offset" />
          </mxGeometry>
        </mxCell>
        <mxCell id="pFc9fvCr-5DMcOuQmoxq-27" value="是否超过宽限期" style="rhombus;whiteSpace=wrap;html=1;strokeWidth=1;fontSize=12;fontColor=#000000;align=center;shadow=1;" vertex="1" parent="uwi3nF_uWD4Z5xsP9Vq4-1">
          <mxGeometry x="155" y="440" width="80" height="80" as="geometry" />
        </mxCell>
        <mxCell id="pFc9fvCr-5DMcOuQmoxq-32" value="" style="edgeStyle=orthogonalEdgeStyle;rounded=0;orthogonalLoop=1;jettySize=auto;html=1;" edge="1" parent="uwi3nF_uWD4Z5xsP9Vq4-1" source="pFc9fvCr-5DMcOuQmoxq-28" target="pFc9fvCr-5DMcOuQmoxq-31">
          <mxGeometry relative="1" as="geometry" />
        </mxCell>
        <mxCell id="pFc9fvCr-5DMcOuQmoxq-43" value="否" style="edgeLabel;html=1;align=center;verticalAlign=middle;resizable=0;points=[];fontSize=4;" vertex="1" connectable="0" parent="pFc9fvCr-5DMcOuQmoxq-32">
          <mxGeometry x="-0.2571" relative="1" as="geometry">
            <mxPoint as="offset" />
          </mxGeometry>
        </mxCell>
        <mxCell id="pFc9fvCr-5DMcOuQmoxq-35" value="" style="edgeStyle=orthogonalEdgeStyle;rounded=0;orthogonalLoop=1;jettySize=auto;html=1;" edge="1" parent="uwi3nF_uWD4Z5xsP9Vq4-1" source="pFc9fvCr-5DMcOuQmoxq-28" target="pFc9fvCr-5DMcOuQmoxq-34">
          <mxGeometry relative="1" as="geometry" />
        </mxCell>
        <mxCell id="pFc9fvCr-5DMcOuQmoxq-28" value="需要与合作方交互？" style="rhombus;whiteSpace=wrap;html=1;" vertex="1" parent="uwi3nF_uWD4Z5xsP9Vq4-1">
          <mxGeometry x="340" y="83" width="80" height="80" as="geometry" />
        </mxCell>
        <mxCell id="pFc9fvCr-5DMcOuQmoxq-37" style="edgeStyle=orthogonalEdgeStyle;rounded=0;orthogonalLoop=1;jettySize=auto;html=1;entryX=0.5;entryY=0;entryDx=0;entryDy=0;" edge="1" parent="uwi3nF_uWD4Z5xsP9Vq4-1" source="pFc9fvCr-5DMcOuQmoxq-31" target="pFc9fvCr-5DMcOuQmoxq-15">
          <mxGeometry relative="1" as="geometry" />
        </mxCell>
        <mxCell id="pFc9fvCr-5DMcOuQmoxq-39" value="是&lt;br&gt;status=2" style="edgeLabel;html=1;align=center;verticalAlign=middle;resizable=0;points=[];" vertex="1" connectable="0" parent="pFc9fvCr-5DMcOuQmoxq-37">
          <mxGeometry x="-0.6371" y="-2" relative="1" as="geometry">
            <mxPoint as="offset" />
          </mxGeometry>
        </mxCell>
        <mxCell id="pFc9fvCr-5DMcOuQmoxq-38" style="edgeStyle=orthogonalEdgeStyle;rounded=0;orthogonalLoop=1;jettySize=auto;html=1;exitX=0;exitY=0.5;exitDx=0;exitDy=0;entryX=0.5;entryY=0;entryDx=0;entryDy=0;" edge="1" parent="uwi3nF_uWD4Z5xsP9Vq4-1" source="pFc9fvCr-5DMcOuQmoxq-31" target="pFc9fvCr-5DMcOuQmoxq-15">
          <mxGeometry relative="1" as="geometry" />
        </mxCell>
        <mxCell id="pFc9fvCr-5DMcOuQmoxq-40" value="否&lt;br&gt;status=1" style="edgeLabel;html=1;align=center;verticalAlign=middle;resizable=0;points=[];" vertex="1" connectable="0" parent="pFc9fvCr-5DMcOuQmoxq-38">
          <mxGeometry x="-0.0855" y="1" relative="1" as="geometry">
            <mxPoint x="-54.83" y="-74.03" as="offset" />
          </mxGeometry>
        </mxCell>
        <mxCell id="pFc9fvCr-5DMcOuQmoxq-31" value="支持宽限期？" style="rhombus;whiteSpace=wrap;html=1;" vertex="1" parent="uwi3nF_uWD4Z5xsP9Vq4-1">
          <mxGeometry x="235" y="170" width="80" height="80" as="geometry" />
        </mxCell>
        <mxCell id="pFc9fvCr-5DMcOuQmoxq-36" value="" style="edgeStyle=orthogonalEdgeStyle;rounded=0;orthogonalLoop=1;jettySize=auto;html=1;exitX=0.5;exitY=1;exitDx=0;exitDy=0;" edge="1" parent="uwi3nF_uWD4Z5xsP9Vq4-1" source="pFc9fvCr-5DMcOuQmoxq-34" target="pFc9fvCr-5DMcOuQmoxq-15">
          <mxGeometry relative="1" as="geometry" />
        </mxCell>
        <mxCell id="pFc9fvCr-5DMcOuQmoxq-41" value="返回4种状态" style="edgeLabel;html=1;align=center;verticalAlign=middle;resizable=0;points=[];" vertex="1" connectable="0" parent="pFc9fvCr-5DMcOuQmoxq-36">
          <mxGeometry x="-0.366" y="-1" relative="1" as="geometry">
            <mxPoint x="28.09" y="-24.03" as="offset" />
          </mxGeometry>
        </mxCell>
        <mxCell id="pFc9fvCr-5DMcOuQmoxq-34" value="同步合作方续费状态" style="rounded=0;whiteSpace=wrap;html=1;" vertex="1" parent="uwi3nF_uWD4Z5xsP9Vq4-1">
          <mxGeometry x="460" y="170" width="120" height="60" as="geometry" />
        </mxCell>
        <mxCell id="pFc9fvCr-5DMcOuQmoxq-42" value="0：已取消&lt;br style=&quot;font-size: 10px;&quot;&gt;1：续费中&lt;br style=&quot;font-size: 10px;&quot;&gt;2：宽限期&lt;br style=&quot;font-size: 10px;&quot;&gt;&lt;div style=&quot;text-align: left; font-size: 10px;&quot;&gt;&lt;span style=&quot;font-size: 10px;&quot;&gt;3：异常&lt;/span&gt;&lt;/div&gt;" style="text;html=1;strokeColor=none;fillColor=none;align=center;verticalAlign=middle;whiteSpace=wrap;rounded=0;fontSize=10;fontColor=#EA6B66;fontStyle=2" vertex="1" parent="uwi3nF_uWD4Z5xsP9Vq4-1">
          <mxGeometry x="525" y="260" width="75" height="50" as="geometry" />
        </mxCell>
      </root>
    </mxGraphModel>
  </diagram>
</mxfile>
